<mxfile host="localhost" modified="2020-05-14T04:53:51.706Z" agent="5.0 (Macintosh; Intel Mac OS X 10_15_4) AppleWebKit/537.36 (KHTML, like Gecko) Code/1.45.0 Chrome/78.0.3904.130 Electron/7.2.4 Safari/537.36" etag="uo49o2xgMEtwtznVh4kF" version="13.0.9" pages="3">
    <diagram id="BkKJ4BOoQx7jIZ1TQimQ" name="admin">
        <mxGraphModel dx="1202" dy="972" grid="1" gridSize="10" guides="1" tooltips="1" connect="1" arrows="1" fold="1" page="1" pageScale="1" pageWidth="850" pageHeight="1100" math="0" shadow="0">
            <root>
                <mxCell id="0"/>
                <mxCell id="1" parent="0"/>
                <mxCell id="49" value="web browser" style="verticalAlign=top;align=left;spacingTop=8;spacingLeft=2;spacingRight=12;shape=cube;size=14;direction=south;fontStyle=4;html=1;strokeWidth=1;" vertex="1" parent="1">
                    <mxGeometry x="223.75" y="431" width="656.25" height="69" as="geometry"/>
                </mxCell>
                <mxCell id="3" value="firebase" style="shape=folder;fontStyle=1;spacingTop=10;tabWidth=40;tabHeight=14;tabPosition=left;html=1;align=left;verticalAlign=top;" parent="1" vertex="1">
                    <mxGeometry x="90" y="103.75" width="970" height="250" as="geometry"/>
                </mxCell>
                <mxCell id="9" value="Hosting" style="shape=folder;fontStyle=1;spacingTop=10;tabWidth=40;tabHeight=14;tabPosition=left;html=1;align=left;verticalAlign=top;" parent="1" vertex="1">
                    <mxGeometry x="410" y="157.5" width="300" height="142.5" as="geometry"/>
                </mxCell>
                <mxCell id="4" value="projection" style="verticalAlign=top;align=left;spacingTop=8;spacingLeft=2;spacingRight=12;shape=cube;size=10;direction=south;fontStyle=4;html=1;" parent="1" vertex="1">
                    <mxGeometry x="613.75" y="207.5" width="70" height="52.5" as="geometry"/>
                </mxCell>
                <mxCell id="6" value="client" style="verticalAlign=top;align=left;spacingTop=8;spacingLeft=2;spacingRight=12;shape=cube;size=10;direction=south;fontStyle=4;html=1;" parent="1" vertex="1">
                    <mxGeometry x="523.75" y="207.5" width="70" height="52.5" as="geometry"/>
                </mxCell>
                <mxCell id="7" value="admin&amp;nbsp;" style="verticalAlign=top;align=left;spacingTop=8;spacingLeft=2;spacingRight=12;shape=cube;size=10;direction=south;fontStyle=4;html=1;" parent="1" vertex="1">
                    <mxGeometry x="433.75" y="207.5" width="70" height="52.5" as="geometry"/>
                </mxCell>
                <mxCell id="17" value="Cloud Functions" style="shape=folder;fontStyle=1;spacingTop=10;tabWidth=40;tabHeight=14;tabPosition=left;html=1;align=left;verticalAlign=top;" parent="1" vertex="1">
                    <mxGeometry x="130" y="157.5" width="240" height="142.5" as="geometry"/>
                </mxCell>
                <mxCell id="18" value="IP restriction" style="verticalAlign=top;align=left;spacingTop=8;spacingLeft=2;spacingRight=12;shape=cube;size=10;direction=south;fontStyle=4;html=1;" parent="1" vertex="1">
                    <mxGeometry x="240" y="208.75" width="100" height="50" as="geometry"/>
                </mxCell>
                <mxCell id="23" value="Realtime Database" style="shape=folder;fontStyle=1;spacingTop=10;tabWidth=40;tabHeight=14;tabPosition=left;html=1;strokeWidth=1;align=left;verticalAlign=top;" vertex="1" parent="1">
                    <mxGeometry x="740" y="157.5" width="280" height="142.5" as="geometry"/>
                </mxCell>
                <mxCell id="24" value="security rules" style="verticalAlign=top;align=left;spacingTop=8;spacingLeft=2;spacingRight=12;shape=cube;size=10;direction=south;fontStyle=4;html=1;strokeWidth=1;" vertex="1" parent="1">
                    <mxGeometry x="763" y="218.75" width="110" height="40" as="geometry"/>
                </mxCell>
                <mxCell id="25" value="&amp;nbsp; &amp;nbsp; &amp;nbsp; &amp;nbsp; &amp;nbsp; &amp;nbsp; &amp;nbsp; &amp;nbsp; &amp;nbsp; JSON" style="strokeWidth=1;html=1;shape=mxgraph.flowchart.database;whiteSpace=wrap;align=center;verticalAlign=middle;" vertex="1" parent="1">
                    <mxGeometry x="910" y="204.37" width="80" height="60" as="geometry"/>
                </mxCell>
                <mxCell id="26" value="index .html" style="shape=note;whiteSpace=wrap;html=1;size=14;verticalAlign=middle;align=center;spacingTop=-6;strokeWidth=1;" vertex="1" parent="1">
                    <mxGeometry x="160" y="204.37" width="50" height="58.75" as="geometry"/>
                </mxCell>
                <mxCell id="32" value="" style="endArrow=classic;html=1;entryX=1;entryY=0.339;entryDx=0;entryDy=0;entryPerimeter=0;" edge="1" parent="1" target="7">
                    <mxGeometry width="50" height="50" relative="1" as="geometry">
                        <mxPoint x="480" y="440" as="sourcePoint"/>
                        <mxPoint x="390" y="350" as="targetPoint"/>
                    </mxGeometry>
                </mxCell>
                <mxCell id="33" value="" style="endArrow=classic;html=1;exitX=0;exitY=0;exitDx=52.5;exitDy=40;exitPerimeter=0;" edge="1" parent="1" source="7">
                    <mxGeometry width="50" height="50" relative="1" as="geometry">
                        <mxPoint x="340" y="400" as="sourcePoint"/>
                        <mxPoint x="464" y="440" as="targetPoint"/>
                    </mxGeometry>
                </mxCell>
                <mxCell id="34" value="" style="endArrow=classic;html=1;exitX=1.006;exitY=0.792;exitDx=0;exitDy=0;exitPerimeter=0;entryX=1.032;entryY=0.317;entryDx=0;entryDy=0;entryPerimeter=0;dashed=1;" edge="1" parent="1" source="7" target="18">
                    <mxGeometry width="50" height="50" relative="1" as="geometry">
                        <mxPoint x="340" y="400" as="sourcePoint"/>
                        <mxPoint x="390" y="350" as="targetPoint"/>
                        <Array as="points">
                            <mxPoint x="448" y="280"/>
                            <mxPoint x="308" y="280"/>
                        </Array>
                    </mxGeometry>
                </mxCell>
                <mxCell id="39" value="&amp;nbsp;/index.html&amp;nbsp;" style="edgeLabel;html=1;align=center;verticalAlign=middle;resizable=0;points=[];" vertex="1" connectable="0" parent="34">
                    <mxGeometry x="0.0358" y="3" relative="1" as="geometry">
                        <mxPoint as="offset"/>
                    </mxGeometry>
                </mxCell>
                <mxCell id="35" value="" style="endArrow=classic;html=1;exitX=1.005;exitY=0.582;exitDx=0;exitDy=0;exitPerimeter=0;entryX=0;entryY=0;entryDx=30;entryDy=100;entryPerimeter=0;dashed=1;" edge="1" parent="1" source="26" target="18">
                    <mxGeometry width="50" height="50" relative="1" as="geometry">
                        <mxPoint x="210" y="400" as="sourcePoint"/>
                        <mxPoint x="260" y="350" as="targetPoint"/>
                    </mxGeometry>
                </mxCell>
                <mxCell id="36" value="" style="endArrow=classic;html=1;exitX=1.003;exitY=0.703;exitDx=0;exitDy=0;exitPerimeter=0;" edge="1" parent="1" source="18">
                    <mxGeometry width="50" height="50" relative="1" as="geometry">
                        <mxPoint x="360" y="270" as="sourcePoint"/>
                        <mxPoint x="270" y="440" as="targetPoint"/>
                    </mxGeometry>
                </mxCell>
                <mxCell id="40" value="index.html" style="edgeLabel;html=1;align=center;verticalAlign=middle;resizable=0;points=[];" vertex="1" connectable="0" parent="36">
                    <mxGeometry x="-0.2612" relative="1" as="geometry">
                        <mxPoint as="offset"/>
                    </mxGeometry>
                </mxCell>
                <mxCell id="38" value="" style="endArrow=classic;startArrow=classic;html=1;exitX=0;exitY=0;exitDx=15;exitDy=0;exitPerimeter=0;dashed=1;" edge="1" parent="1" source="24" target="25">
                    <mxGeometry width="50" height="50" relative="1" as="geometry">
                        <mxPoint x="860" y="290" as="sourcePoint"/>
                        <mxPoint x="910" y="240" as="targetPoint"/>
                    </mxGeometry>
                </mxCell>
                <mxCell id="45" value="" style="endArrow=classic;startArrow=classic;html=1;entryX=0;entryY=0;entryDx=40;entryDy=60;entryPerimeter=0;" edge="1" parent="1" target="24">
                    <mxGeometry width="50" height="50" relative="1" as="geometry">
                        <mxPoint x="813" y="440" as="sourcePoint"/>
                        <mxPoint x="813" y="290" as="targetPoint"/>
                    </mxGeometry>
                </mxCell>
            </root>
        </mxGraphModel>
    </diagram>
    <diagram name="client" id="wvhIaZQOHfYVt47a7fDO">
        <mxGraphModel dx="1022" dy="826" grid="1" gridSize="10" guides="1" tooltips="1" connect="1" arrows="1" fold="1" page="1" pageScale="1" pageWidth="850" pageHeight="1100" math="0" shadow="0">
            <root>
                <mxCell id="mxiU8RpPYdtAAfxj4Q7t-0"/>
                <mxCell id="mxiU8RpPYdtAAfxj4Q7t-1" parent="mxiU8RpPYdtAAfxj4Q7t-0"/>
                <mxCell id="S5cwTS8tCwRSjDb7LU4J-0" value="web browser" style="verticalAlign=top;align=left;spacingTop=8;spacingLeft=2;spacingRight=12;shape=cube;size=13;direction=south;fontStyle=4;html=1;strokeWidth=1;" vertex="1" parent="mxiU8RpPYdtAAfxj4Q7t-1">
                    <mxGeometry x="505.75" y="433" width="346.25" height="58" as="geometry"/>
                </mxCell>
                <mxCell id="mxiU8RpPYdtAAfxj4Q7t-3" value="firebase" style="shape=folder;fontStyle=1;spacingTop=10;tabWidth=40;tabHeight=14;tabPosition=left;html=1;align=left;verticalAlign=top;" vertex="1" parent="mxiU8RpPYdtAAfxj4Q7t-1">
                    <mxGeometry x="90" y="103.75" width="970" height="250" as="geometry"/>
                </mxCell>
                <mxCell id="mxiU8RpPYdtAAfxj4Q7t-4" value="Hosting" style="shape=folder;fontStyle=1;spacingTop=10;tabWidth=40;tabHeight=14;tabPosition=left;html=1;align=left;verticalAlign=top;" vertex="1" parent="mxiU8RpPYdtAAfxj4Q7t-1">
                    <mxGeometry x="410" y="157.5" width="300" height="142.5" as="geometry"/>
                </mxCell>
                <mxCell id="mxiU8RpPYdtAAfxj4Q7t-5" value="projection" style="verticalAlign=top;align=left;spacingTop=8;spacingLeft=2;spacingRight=12;shape=cube;size=10;direction=south;fontStyle=4;html=1;" vertex="1" parent="mxiU8RpPYdtAAfxj4Q7t-1">
                    <mxGeometry x="613.75" y="207.5" width="70" height="52.5" as="geometry"/>
                </mxCell>
                <mxCell id="mxiU8RpPYdtAAfxj4Q7t-6" value="client" style="verticalAlign=top;align=left;spacingTop=8;spacingLeft=2;spacingRight=12;shape=cube;size=10;direction=south;fontStyle=4;html=1;" vertex="1" parent="mxiU8RpPYdtAAfxj4Q7t-1">
                    <mxGeometry x="523.75" y="207.5" width="70" height="52.5" as="geometry"/>
                </mxCell>
                <mxCell id="mxiU8RpPYdtAAfxj4Q7t-7" value="admin&amp;nbsp;" style="verticalAlign=top;align=left;spacingTop=8;spacingLeft=2;spacingRight=12;shape=cube;size=10;direction=south;fontStyle=4;html=1;" vertex="1" parent="mxiU8RpPYdtAAfxj4Q7t-1">
                    <mxGeometry x="433.75" y="207.5" width="70" height="52.5" as="geometry"/>
                </mxCell>
                <mxCell id="mxiU8RpPYdtAAfxj4Q7t-8" value="Cloud Functions" style="shape=folder;fontStyle=1;spacingTop=10;tabWidth=40;tabHeight=14;tabPosition=left;html=1;align=left;verticalAlign=top;" vertex="1" parent="mxiU8RpPYdtAAfxj4Q7t-1">
                    <mxGeometry x="130" y="157.5" width="240" height="142.5" as="geometry"/>
                </mxCell>
                <mxCell id="mxiU8RpPYdtAAfxj4Q7t-9" value="IP restriction" style="verticalAlign=top;align=left;spacingTop=8;spacingLeft=2;spacingRight=12;shape=cube;size=10;direction=south;fontStyle=4;html=1;" vertex="1" parent="mxiU8RpPYdtAAfxj4Q7t-1">
                    <mxGeometry x="240" y="208.75" width="100" height="50" as="geometry"/>
                </mxCell>
                <mxCell id="mxiU8RpPYdtAAfxj4Q7t-10" value="Realtime Database" style="shape=folder;fontStyle=1;spacingTop=10;tabWidth=40;tabHeight=14;tabPosition=left;html=1;strokeWidth=1;align=left;verticalAlign=top;" vertex="1" parent="mxiU8RpPYdtAAfxj4Q7t-1">
                    <mxGeometry x="740" y="157.5" width="280" height="142.5" as="geometry"/>
                </mxCell>
                <mxCell id="mxiU8RpPYdtAAfxj4Q7t-11" value="security rules" style="verticalAlign=top;align=left;spacingTop=8;spacingLeft=2;spacingRight=12;shape=cube;size=10;direction=south;fontStyle=4;html=1;strokeWidth=1;" vertex="1" parent="mxiU8RpPYdtAAfxj4Q7t-1">
                    <mxGeometry x="763" y="218.75" width="110" height="40" as="geometry"/>
                </mxCell>
                <mxCell id="mxiU8RpPYdtAAfxj4Q7t-12" value="&amp;nbsp; &amp;nbsp; &amp;nbsp; &amp;nbsp; &amp;nbsp; &amp;nbsp; &amp;nbsp; &amp;nbsp; &amp;nbsp; JSON" style="strokeWidth=1;html=1;shape=mxgraph.flowchart.database;whiteSpace=wrap;align=center;verticalAlign=middle;" vertex="1" parent="mxiU8RpPYdtAAfxj4Q7t-1">
                    <mxGeometry x="910" y="204.37" width="80" height="60" as="geometry"/>
                </mxCell>
                <mxCell id="mxiU8RpPYdtAAfxj4Q7t-13" value="index .html" style="shape=note;whiteSpace=wrap;html=1;size=14;verticalAlign=middle;align=center;spacingTop=-6;strokeWidth=1;" vertex="1" parent="mxiU8RpPYdtAAfxj4Q7t-1">
                    <mxGeometry x="160" y="204.37" width="50" height="58.75" as="geometry"/>
                </mxCell>
                <mxCell id="mxiU8RpPYdtAAfxj4Q7t-14" value="" style="endArrow=classic;html=1;entryX=0.989;entryY=0.382;entryDx=0;entryDy=0;entryPerimeter=0;" edge="1" parent="mxiU8RpPYdtAAfxj4Q7t-1" target="mxiU8RpPYdtAAfxj4Q7t-6">
                    <mxGeometry width="50" height="50" relative="1" as="geometry">
                        <mxPoint x="567" y="440" as="sourcePoint"/>
                        <mxPoint x="390" y="350" as="targetPoint"/>
                    </mxGeometry>
                </mxCell>
                <mxCell id="mxiU8RpPYdtAAfxj4Q7t-15" value="" style="endArrow=classic;html=1;exitX=1.008;exitY=0.682;exitDx=0;exitDy=0;exitPerimeter=0;" edge="1" parent="mxiU8RpPYdtAAfxj4Q7t-1" source="mxiU8RpPYdtAAfxj4Q7t-6">
                    <mxGeometry width="50" height="50" relative="1" as="geometry">
                        <mxPoint x="340" y="400" as="sourcePoint"/>
                        <mxPoint x="546" y="440" as="targetPoint"/>
                    </mxGeometry>
                </mxCell>
                <mxCell id="mxiU8RpPYdtAAfxj4Q7t-18" value="" style="endArrow=classic;html=1;exitX=1.005;exitY=0.582;exitDx=0;exitDy=0;exitPerimeter=0;entryX=0;entryY=0;entryDx=30;entryDy=100;entryPerimeter=0;dashed=1;" edge="1" parent="mxiU8RpPYdtAAfxj4Q7t-1" source="mxiU8RpPYdtAAfxj4Q7t-13" target="mxiU8RpPYdtAAfxj4Q7t-9">
                    <mxGeometry width="50" height="50" relative="1" as="geometry">
                        <mxPoint x="210" y="400" as="sourcePoint"/>
                        <mxPoint x="260" y="350" as="targetPoint"/>
                    </mxGeometry>
                </mxCell>
                <mxCell id="mxiU8RpPYdtAAfxj4Q7t-21" value="" style="endArrow=classic;startArrow=classic;html=1;exitX=0;exitY=0;exitDx=15;exitDy=0;exitPerimeter=0;dashed=1;" edge="1" parent="mxiU8RpPYdtAAfxj4Q7t-1" source="mxiU8RpPYdtAAfxj4Q7t-11" target="mxiU8RpPYdtAAfxj4Q7t-12">
                    <mxGeometry width="50" height="50" relative="1" as="geometry">
                        <mxPoint x="860" y="290" as="sourcePoint"/>
                        <mxPoint x="910" y="240" as="targetPoint"/>
                    </mxGeometry>
                </mxCell>
                <mxCell id="mxiU8RpPYdtAAfxj4Q7t-22" value="" style="endArrow=classic;startArrow=classic;html=1;entryX=0;entryY=0;entryDx=40;entryDy=60;entryPerimeter=0;" edge="1" parent="mxiU8RpPYdtAAfxj4Q7t-1" target="mxiU8RpPYdtAAfxj4Q7t-11">
                    <mxGeometry width="50" height="50" relative="1" as="geometry">
                        <mxPoint x="813" y="440" as="sourcePoint"/>
                        <mxPoint x="813" y="290" as="targetPoint"/>
                    </mxGeometry>
                </mxCell>
            </root>
        </mxGraphModel>
    </diagram>
    <diagram name="Copy of client" id="HRd40VMXUX4SFPBSfQRN">
        <mxGraphModel dx="1022" dy="826" grid="1" gridSize="10" guides="1" tooltips="1" connect="1" arrows="1" fold="1" page="1" pageScale="1" pageWidth="850" pageHeight="1100" math="0" shadow="0">
            <root>
                <mxCell id="Ke6kFCJkcBZbHQGikiyr-0"/>
                <mxCell id="Ke6kFCJkcBZbHQGikiyr-1" parent="Ke6kFCJkcBZbHQGikiyr-0"/>
                <mxCell id="Ke6kFCJkcBZbHQGikiyr-19" value="web browser" style="verticalAlign=top;align=left;spacingTop=8;spacingLeft=2;spacingRight=12;shape=cube;size=13;direction=south;fontStyle=4;html=1;strokeWidth=1;" vertex="1" parent="Ke6kFCJkcBZbHQGikiyr-1">
                    <mxGeometry x="600" y="433" width="240" height="67" as="geometry"/>
                </mxCell>
                <mxCell id="Ke6kFCJkcBZbHQGikiyr-3" value="firebase" style="shape=folder;fontStyle=1;spacingTop=10;tabWidth=40;tabHeight=14;tabPosition=left;html=1;align=left;verticalAlign=top;" vertex="1" parent="Ke6kFCJkcBZbHQGikiyr-1">
                    <mxGeometry x="90" y="103.75" width="970" height="250" as="geometry"/>
                </mxCell>
                <mxCell id="Ke6kFCJkcBZbHQGikiyr-4" value="Hosting" style="shape=folder;fontStyle=1;spacingTop=10;tabWidth=40;tabHeight=14;tabPosition=left;html=1;align=left;verticalAlign=top;" vertex="1" parent="Ke6kFCJkcBZbHQGikiyr-1">
                    <mxGeometry x="410" y="157.5" width="300" height="142.5" as="geometry"/>
                </mxCell>
                <mxCell id="Ke6kFCJkcBZbHQGikiyr-5" value="projection" style="verticalAlign=top;align=left;spacingTop=8;spacingLeft=2;spacingRight=12;shape=cube;size=10;direction=south;fontStyle=4;html=1;" vertex="1" parent="Ke6kFCJkcBZbHQGikiyr-1">
                    <mxGeometry x="613.75" y="207.5" width="70" height="52.5" as="geometry"/>
                </mxCell>
                <mxCell id="Ke6kFCJkcBZbHQGikiyr-6" value="client" style="verticalAlign=top;align=left;spacingTop=8;spacingLeft=2;spacingRight=12;shape=cube;size=10;direction=south;fontStyle=4;html=1;" vertex="1" parent="Ke6kFCJkcBZbHQGikiyr-1">
                    <mxGeometry x="523.75" y="207.5" width="70" height="52.5" as="geometry"/>
                </mxCell>
                <mxCell id="Ke6kFCJkcBZbHQGikiyr-7" value="admin&amp;nbsp;" style="verticalAlign=top;align=left;spacingTop=8;spacingLeft=2;spacingRight=12;shape=cube;size=10;direction=south;fontStyle=4;html=1;" vertex="1" parent="Ke6kFCJkcBZbHQGikiyr-1">
                    <mxGeometry x="433.75" y="207.5" width="70" height="52.5" as="geometry"/>
                </mxCell>
                <mxCell id="Ke6kFCJkcBZbHQGikiyr-8" value="Cloud Functions" style="shape=folder;fontStyle=1;spacingTop=10;tabWidth=40;tabHeight=14;tabPosition=left;html=1;align=left;verticalAlign=top;" vertex="1" parent="Ke6kFCJkcBZbHQGikiyr-1">
                    <mxGeometry x="130" y="157.5" width="240" height="142.5" as="geometry"/>
                </mxCell>
                <mxCell id="Ke6kFCJkcBZbHQGikiyr-9" value="IP restriction" style="verticalAlign=top;align=left;spacingTop=8;spacingLeft=2;spacingRight=12;shape=cube;size=10;direction=south;fontStyle=4;html=1;" vertex="1" parent="Ke6kFCJkcBZbHQGikiyr-1">
                    <mxGeometry x="240" y="208.75" width="100" height="50" as="geometry"/>
                </mxCell>
                <mxCell id="Ke6kFCJkcBZbHQGikiyr-10" value="Realtime Database" style="shape=folder;fontStyle=1;spacingTop=10;tabWidth=40;tabHeight=14;tabPosition=left;html=1;strokeWidth=1;align=left;verticalAlign=top;" vertex="1" parent="Ke6kFCJkcBZbHQGikiyr-1">
                    <mxGeometry x="740" y="157.5" width="280" height="142.5" as="geometry"/>
                </mxCell>
                <mxCell id="Ke6kFCJkcBZbHQGikiyr-11" value="security rules" style="verticalAlign=top;align=left;spacingTop=8;spacingLeft=2;spacingRight=12;shape=cube;size=10;direction=south;fontStyle=4;html=1;strokeWidth=1;" vertex="1" parent="Ke6kFCJkcBZbHQGikiyr-1">
                    <mxGeometry x="763" y="218.75" width="110" height="40" as="geometry"/>
                </mxCell>
                <mxCell id="Ke6kFCJkcBZbHQGikiyr-12" value="&amp;nbsp; &amp;nbsp; &amp;nbsp; &amp;nbsp; &amp;nbsp; &amp;nbsp; &amp;nbsp; &amp;nbsp; &amp;nbsp; JSON" style="strokeWidth=1;html=1;shape=mxgraph.flowchart.database;whiteSpace=wrap;align=center;verticalAlign=middle;" vertex="1" parent="Ke6kFCJkcBZbHQGikiyr-1">
                    <mxGeometry x="910" y="204.37" width="80" height="60" as="geometry"/>
                </mxCell>
                <mxCell id="Ke6kFCJkcBZbHQGikiyr-13" value="index .html" style="shape=note;whiteSpace=wrap;html=1;size=14;verticalAlign=middle;align=center;spacingTop=-6;strokeWidth=1;" vertex="1" parent="Ke6kFCJkcBZbHQGikiyr-1">
                    <mxGeometry x="160" y="204.37" width="50" height="58.75" as="geometry"/>
                </mxCell>
                <mxCell id="Ke6kFCJkcBZbHQGikiyr-14" value="" style="endArrow=classic;html=1;entryX=0.989;entryY=0.411;entryDx=0;entryDy=0;entryPerimeter=0;" edge="1" parent="Ke6kFCJkcBZbHQGikiyr-1" target="Ke6kFCJkcBZbHQGikiyr-5">
                    <mxGeometry width="50" height="50" relative="1" as="geometry">
                        <mxPoint x="655" y="440" as="sourcePoint"/>
                        <mxPoint x="390" y="350" as="targetPoint"/>
                    </mxGeometry>
                </mxCell>
                <mxCell id="Ke6kFCJkcBZbHQGikiyr-15" value="" style="endArrow=classic;html=1;exitX=1.027;exitY=0.725;exitDx=0;exitDy=0;exitPerimeter=0;" edge="1" parent="Ke6kFCJkcBZbHQGikiyr-1" source="Ke6kFCJkcBZbHQGikiyr-5">
                    <mxGeometry width="50" height="50" relative="1" as="geometry">
                        <mxPoint x="340" y="400" as="sourcePoint"/>
                        <mxPoint x="633" y="440" as="targetPoint"/>
                    </mxGeometry>
                </mxCell>
                <mxCell id="Ke6kFCJkcBZbHQGikiyr-16" value="" style="endArrow=classic;html=1;exitX=1.005;exitY=0.582;exitDx=0;exitDy=0;exitPerimeter=0;entryX=0;entryY=0;entryDx=30;entryDy=100;entryPerimeter=0;dashed=1;" edge="1" parent="Ke6kFCJkcBZbHQGikiyr-1" source="Ke6kFCJkcBZbHQGikiyr-13" target="Ke6kFCJkcBZbHQGikiyr-9">
                    <mxGeometry width="50" height="50" relative="1" as="geometry">
                        <mxPoint x="210" y="400" as="sourcePoint"/>
                        <mxPoint x="260" y="350" as="targetPoint"/>
                    </mxGeometry>
                </mxCell>
                <mxCell id="Ke6kFCJkcBZbHQGikiyr-17" value="" style="endArrow=classic;startArrow=classic;html=1;exitX=0;exitY=0;exitDx=15;exitDy=0;exitPerimeter=0;dashed=1;" edge="1" parent="Ke6kFCJkcBZbHQGikiyr-1" source="Ke6kFCJkcBZbHQGikiyr-11" target="Ke6kFCJkcBZbHQGikiyr-12">
                    <mxGeometry width="50" height="50" relative="1" as="geometry">
                        <mxPoint x="860" y="290" as="sourcePoint"/>
                        <mxPoint x="910" y="240" as="targetPoint"/>
                    </mxGeometry>
                </mxCell>
                <mxCell id="Ke6kFCJkcBZbHQGikiyr-18" value="" style="endArrow=classic;startArrow=classic;html=1;entryX=0;entryY=0;entryDx=40;entryDy=60;entryPerimeter=0;" edge="1" parent="Ke6kFCJkcBZbHQGikiyr-1" target="Ke6kFCJkcBZbHQGikiyr-11">
                    <mxGeometry width="50" height="50" relative="1" as="geometry">
                        <mxPoint x="813" y="440" as="sourcePoint"/>
                        <mxPoint x="813" y="290" as="targetPoint"/>
                    </mxGeometry>
                </mxCell>
            </root>
        </mxGraphModel>
    </diagram>
</mxfile>